<svg xmlns="http://www.w3.org/2000/svg" viewBox="0 0 300 300"><path fill="#cdff49" d="M97.05 54.81c-7.22-.19-14.44-.21-21.66-.02-5.12.14-13.09-.96-17.68 1.64-4.75 2.7-3.44 9.5-3.44 14.05 0 6.87 0 13.74.01 20.61 0 6.43 10 6.45 10 0V75.17c0-2.5-.01-5-.01-7.49 0-.49.13-1.45.17-2.31 4.73.45 10.18-.58 14.89-.66 5.91-.1 11.82-.05 17.72.11 6.44.17 6.43-9.83 0-10zM235.86 207.11c-.55 4.97-.93 9.96-1.06 14.96-.03 1.23.6 9.61.51 13.28-1.66-.43-5.01-.34-5.32-.34-2.58 0-5.17 0-7.75-.01-5.17 0-10.33-.02-15.5-.02-6.43 0-6.44 9.99 0 10l20.35.03c4.68 0 12.95 1.66 16.32-2.46 3.1-3.79 1.37-10.38 1.34-14.85-.04-6.88.36-13.74 1.11-20.58.7-6.39-9.31-6.34-10 0z"></path></svg>